<svg width="237" height="29" viewBox="0 0 237 29" fill="none" xmlns="http://www.w3.org/2000/svg">
<path d="M0.87234 0.914894H2.74468V2.78724H0.87234V0.914894ZM2.74468 0.914894H4.61702V2.78724H2.74468V0.914894ZM4.61702 0.914894H6.48936V2.78724H4.61702V0.914894ZM6.48936 0.914894H8.3617V2.78724H6.48936V0.914894ZM6.48936 2.78724H8.3617V4.65958H6.48936V2.78724ZM6.48936 4.65958H8.3617V6.53192H6.48936V4.65958ZM6.48936 6.53192H8.3617V8.40426H6.48936V6.53192ZM0.87234 2.78724H2.74468V4.65958H0.87234V2.78724ZM0.87234 4.65958H2.74468V6.53192H0.87234V4.65958ZM0.87234 6.53192H2.74468V8.40426H0.87234V6.53192ZM0.87234 10.2766H2.74468V12.1489H0.87234V10.2766ZM0.87234 12.1489H2.74468V14.0213H0.87234V12.1489ZM0.87234 14.0213H2.74468V15.8936H0.87234V14.0213ZM0.87234 15.8936H2.74468V17.766H0.87234V15.8936ZM0.87234 17.766H2.74468V19.6383H0.87234V17.766ZM2.74468 19.6383H4.61702V21.5106H2.74468V19.6383ZM2.74468 21.5106H4.61702V23.383H2.74468V21.5106ZM2.74468 23.383H4.61702V25.2553H2.74468V23.383ZM2.74468 25.2553H4.61702V27.1277H2.74468V25.2553ZM2.74468 27.1277H4.61702V29H2.74468V27.1277ZM0.87234 8.40426H2.74468V10.2766H0.87234V8.40426ZM0.87234 19.6383H2.74468V21.5106H0.87234V19.6383ZM0.87234 21.5106H2.74468V23.383H0.87234V21.5106ZM0.87234 23.383H2.74468V25.2553H0.87234V23.383ZM0.87234 25.2553H2.74468V27.1277H0.87234V25.2553ZM0.87234 27.1277H2.74468V29H0.87234V27.1277ZM4.61702 27.1277H6.48936V29H4.61702V27.1277ZM4.61702 25.2553H6.48936V27.1277H4.61702V25.2553ZM4.61702 23.383H6.48936V25.2553H4.61702V23.383ZM4.61702 21.5106H6.48936V23.383H4.61702V21.5106ZM4.61702 17.766H6.48936V19.6383H4.61702V17.766ZM4.61702 15.8936H6.48936V17.766H4.61702V15.8936ZM4.61702 12.1489H6.48936V14.0213H4.61702V12.1489ZM4.61702 10.2766H6.48936V12.1489H4.61702V10.2766ZM4.61702 8.40426H6.48936V10.2766H4.61702V8.40426ZM4.61702 14.0213H6.48936V15.8936H4.61702V14.0213ZM4.61702 19.6383H6.48936V21.5106H4.61702V19.6383ZM2.74468 17.766H4.61702V19.6383H2.74468V17.766ZM2.74468 15.8936H4.61702V17.766H2.74468V15.8936ZM2.74468 14.0213H4.61702V15.8936H2.74468V14.0213ZM2.74468 12.1489H4.61702V14.0213H2.74468V12.1489ZM2.74468 10.2766H4.61702V12.1489H2.74468V10.2766ZM2.74468 8.40426H4.61702V10.2766H2.74468V8.40426ZM2.74468 6.53192H4.61702V8.40426H2.74468V6.53192ZM2.74468 4.65958H4.61702V6.53192H2.74468V4.65958ZM2.74468 2.78724H4.61702V4.65958H2.74468V2.78724ZM4.61702 2.78724H6.48936V4.65958H4.61702V2.78724ZM4.61702 4.65958H6.48936V6.53192H4.61702V4.65958ZM4.61702 6.53192H6.48936V8.40426H4.61702V6.53192ZM6.48936 8.40426H8.3617V10.2766H6.48936V8.40426ZM6.48936 10.2766H8.3617V12.1489H6.48936V10.2766ZM8.3617 10.2766H10.234V12.1489H8.3617V10.2766ZM8.3617 12.1489H10.234V14.0213H8.3617V12.1489ZM6.48936 12.1489H8.3617V14.0213H6.48936V12.1489ZM8.3617 8.40426H10.234V10.2766H8.3617V8.40426ZM8.3617 6.53192H10.234V8.40426H8.3617V6.53192ZM8.3617 4.65958H10.234V6.53192H8.3617V4.65958ZM8.3617 14.0213H10.234V15.8936H8.3617V14.0213ZM10.234 14.0213H12.1064V15.8936H10.234V14.0213ZM10.234 12.1489H12.1064V14.0213H10.234V12.1489ZM10.234 10.2766H12.1064V12.1489H10.234V10.2766ZM10.234 8.40426H12.1064V10.2766H10.234V8.40426ZM8.3617 15.8936H10.234V17.766H8.3617V15.8936ZM10.234 15.8936H12.1064V17.766H10.234V15.8936ZM12.1064 15.8936H13.9787V17.766H12.1064V15.8936ZM12.1064 14.0213H13.9787V15.8936H12.1064V14.0213ZM12.1064 12.1489H13.9787V14.0213H12.1064V12.1489ZM10.234 19.6383H12.1064V21.5106H10.234V19.6383ZM10.234 17.766H12.1064V19.6383H10.234V17.766ZM12.1064 17.766H13.9787V19.6383H12.1064V17.766ZM12.1064 19.6383H13.9787V21.5106H12.1064V19.6383ZM13.9787 17.766H15.8511V19.6383H13.9787V17.766ZM13.9787 15.8936H15.8511V17.766H13.9787V15.8936ZM13.9787 19.6383H15.8511V21.5106H13.9787V19.6383ZM13.9787 21.5106H15.8511V23.383H13.9787V21.5106ZM12.1064 21.5106H13.9787V23.383H12.1064V21.5106ZM12.1064 23.383H13.9787V25.2553H12.1064V23.383ZM13.9787 23.383H15.8511V25.2553H13.9787V23.383ZM13.9787 25.2553H15.8511V27.1277H13.9787V25.2553ZM13.9787 27.1277H15.8511V29H13.9787V27.1277ZM15.8511 27.1277H17.7234V29H15.8511V27.1277ZM17.7234 27.1277H19.5957V29H17.7234V27.1277ZM19.5957 27.1277H21.4681V29H19.5957V27.1277ZM19.5957 25.2553H21.4681V27.1277H19.5957V25.2553ZM17.7234 23.383H19.5957V25.2553H17.7234V23.383ZM17.7234 21.5106H19.5957V23.383H17.7234V21.5106ZM17.7234 19.6383H19.5957V21.5106H17.7234V19.6383ZM17.7234 17.766H19.5957V19.6383H17.7234V17.766ZM17.7234 15.8936H19.5957V17.766H17.7234V15.8936ZM19.5957 19.6383H21.4681V21.5106H19.5957V19.6383ZM19.5957 21.5106H21.4681V23.383H19.5957V21.5106ZM19.5957 23.383H21.4681V25.2553H19.5957V23.383ZM17.7234 25.2553H19.5957V27.1277H17.7234V25.2553ZM15.8511 25.2553H17.7234V27.1277H15.8511V25.2553ZM15.8511 23.383H17.7234V25.2553H15.8511V23.383ZM15.8511 21.5106H17.7234V23.383H15.8511V21.5106ZM15.8511 19.6383H17.7234V21.5106H15.8511V19.6383ZM15.8511 17.766H17.7234V19.6383H15.8511V17.766ZM15.8511 15.8936H17.7234V17.766H15.8511V15.8936ZM15.8511 14.0213H17.7234V15.8936H15.8511V14.0213ZM17.7234 14.0213H19.5957V15.8936H17.7234V14.0213ZM19.5957 17.766H21.4681V19.6383H19.5957V17.766ZM19.5957 15.8936H21.4681V17.766H19.5957V15.8936ZM19.5957 14.0213H21.4681V15.8936H19.5957V14.0213ZM19.5957 12.1489H21.4681V14.0213H19.5957V12.1489ZM19.5957 10.2766H21.4681V12.1489H19.5957V10.2766ZM19.5957 8.40426H21.4681V10.2766H19.5957V8.40426ZM17.7234 8.40426H19.5957V10.2766H17.7234V8.40426ZM17.7234 6.53192H19.5957V8.40426H17.7234V6.53192ZM15.8511 8.40426H17.7234V10.2766H15.8511V8.40426ZM15.8511 10.2766H17.7234V12.1489H15.8511V10.2766ZM15.8511 12.1489H17.7234V14.0213H15.8511V12.1489ZM17.7234 12.1489H19.5957V14.0213H17.7234V12.1489ZM17.7234 10.2766H19.5957V12.1489H17.7234V10.2766ZM15.8511 0.914894H17.7234V2.78724H15.8511V0.914894ZM17.7234 0.914894H19.5957V2.78724H17.7234V0.914894ZM19.5957 0.914894H21.4681V2.78724H19.5957V0.914894ZM19.5957 2.78724H21.4681V4.65958H19.5957V2.78724ZM19.5957 4.65958H21.4681V6.53192H19.5957V4.65958ZM19.5957 6.53192H21.4681V8.40426H19.5957V6.53192ZM17.7234 4.65958H19.5957V6.53192H17.7234V4.65958ZM17.7234 2.78724H19.5957V4.65958H17.7234V2.78724ZM15.8511 6.53192H17.7234V8.40426H15.8511V6.53192ZM15.8511 4.65958H17.7234V6.53192H15.8511V4.65958ZM15.8511 2.78724H17.7234V4.65958H15.8511V2.78724ZM25.2109 27.1277H27.0833V29H25.2109V27.1277ZM27.0833 27.1277H28.9556V29H27.0833V27.1277ZM28.9556 27.1277H30.828V29H28.9556V27.1277ZM28.9556 25.2553H30.828V27.1277H28.9556V25.2553ZM28.9556 23.383H30.828V25.2553H28.9556V23.383ZM28.9556 21.5106H30.828V23.383H28.9556V21.5106ZM28.9556 19.6383H30.828V21.5106H28.9556V19.6383ZM28.9556 17.766H30.828V19.6383H28.9556V17.766ZM28.9556 15.8936H30.828V17.766H28.9556V15.8936ZM28.9556 14.0213H30.828V15.8936H28.9556V14.0213ZM28.9556 12.1489H30.828V14.0213H28.9556V12.1489ZM27.0833 12.1489H28.9556V14.0213H27.0833V12.1489ZM27.0833 10.2766H28.9556V12.1489H27.0833V10.2766ZM25.2109 12.1489H27.0833V14.0213H25.2109V12.1489ZM25.2109 14.0213H27.0833V15.8936H25.2109V14.0213ZM25.2109 15.8936H27.0833V17.766H25.2109V15.8936ZM25.2109 17.766H27.0833V19.6383H25.2109V17.766ZM25.2109 19.6383H27.0833V21.5106H25.2109V19.6383ZM25.2109 21.5106H27.0833V23.383H25.2109V21.5106ZM25.2109 23.383H27.0833V25.2553H25.2109V23.383ZM25.2109 25.2553H27.0833V27.1277H25.2109V25.2553ZM27.0833 25.2553H28.9556V27.1277H27.0833V25.2553ZM27.0833 23.383H28.9556V25.2553H27.0833V23.383ZM27.0833 21.5106H28.9556V23.383H27.0833V21.5106ZM25.2109 10.2766H27.0833V12.1489H25.2109V10.2766ZM28.9556 10.2766H30.828V12.1489H28.9556V10.2766ZM27.0833 14.0213H28.9556V15.8936H27.0833V14.0213ZM27.0833 15.8936H28.9556V17.766H27.0833V15.8936ZM27.0833 17.766H28.9556V19.6383H27.0833V17.766ZM27.0833 19.6383H28.9556V21.5106H27.0833V19.6383ZM25.2109 0.914894H27.0833V2.78724H25.2109V0.914894ZM27.0833 0.914894H28.9556V2.78724H27.0833V0.914894ZM28.9556 0.914894H30.828V2.78724H28.9556V0.914894ZM28.9556 2.78724H30.828V4.65958H28.9556V2.78724ZM28.9556 4.65958H30.828V6.53192H28.9556V4.65958ZM28.9556 6.53192H30.828V8.40426H28.9556V6.53192ZM28.9556 8.40426H30.828V10.2766H28.9556V8.40426ZM27.0833 8.40426H28.9556V10.2766H27.0833V8.40426ZM27.0833 6.53192H28.9556V8.40426H27.0833V6.53192ZM27.0833 4.65958H28.9556V6.53192H27.0833V4.65958ZM27.0833 2.78724H28.9556V4.65958H27.0833V2.78724ZM25.2109 2.78724H27.0833V4.65958H25.2109V2.78724ZM25.2109 4.65958H27.0833V6.53192H25.2109V4.65958ZM25.2109 6.53192H27.0833V8.40426H25.2109V6.53192ZM25.2109 8.40426H27.0833V10.2766H25.2109V8.40426ZM38.3356 0.914894H40.2079V2.78724H38.3356V0.914894ZM40.2079 0.914894H42.0803V2.78724H40.2079V0.914894ZM42.0803 0.914894H43.9526V2.78724H42.0803V0.914894ZM43.9526 0.914894H45.825V2.78724H43.9526V0.914894ZM45.825 0.914894H47.6973V2.78724H45.825V0.914894ZM47.6973 0.914894H49.5696V2.78724H47.6973V0.914894ZM47.6973 2.78724H49.5696V4.65958H47.6973V2.78724ZM49.5696 2.78724H51.442V4.65958H49.5696V2.78724ZM45.825 2.78724H47.6973V4.65958H45.825V2.78724ZM43.9526 2.78724H45.825V4.65958H43.9526V2.78724ZM42.0803 2.78724H43.9526V4.65958H42.0803V2.78724ZM40.2079 2.78724H42.0803V4.65958H40.2079V2.78724ZM38.3356 2.78724H40.2079V4.65958H38.3356V2.78724ZM36.4633 4.65958H38.3356V6.53192H36.4633V4.65958ZM36.4633 2.78724H38.3356V4.65958H36.4633V2.78724ZM34.5909 4.65958H36.4633V6.53192H34.5909V4.65958ZM38.3356 4.65958H40.2079V6.53192H38.3356V4.65958ZM40.2079 4.65958H42.0803V6.53192H40.2079V4.65958ZM42.0803 4.65958H43.9526V6.53192H42.0803V4.65958ZM43.9526 4.65958H45.825V6.53192H43.9526V4.65958ZM45.825 4.65958H47.6973V6.53192H45.825V4.65958ZM47.6973 4.65958H49.5696V6.53192H47.6973V4.65958ZM49.5696 4.65958H51.442V6.53192H49.5696V4.65958ZM51.442 4.65958H53.3143V6.53192H51.442V4.65958ZM51.442 6.53192H53.3143V8.40426H51.442V6.53192ZM49.5696 6.53192H51.442V8.40426H49.5696V6.53192ZM47.6973 6.53192H49.5696V8.40426H47.6973V6.53192ZM45.825 6.53192H47.6973V8.40426H45.825V6.53192ZM47.6973 8.40426H49.5696V10.2766H47.6973V8.40426ZM51.442 8.40426H53.3143V10.2766H51.442V8.40426ZM49.5696 8.40426H51.442V10.2766H49.5696V8.40426ZM51.442 19.6383H53.3143V21.5106H51.442V19.6383ZM51.442 21.5106H53.3143V23.383H51.442V21.5106ZM51.442 23.383H53.3143V25.2553H51.442V23.383ZM49.5696 23.383H51.442V25.2553H49.5696V23.383ZM49.5696 21.5106H51.442V23.383H49.5696V21.5106ZM49.5696 19.6383H51.442V21.5106H49.5696V19.6383ZM47.6973 19.6383H49.5696V21.5106H47.6973V19.6383ZM47.6973 21.5106H49.5696V23.383H47.6973V21.5106ZM45.825 21.5106H47.6973V23.383H45.825V21.5106ZM47.6973 23.383H49.5696V25.2553H47.6973V23.383ZM49.5696 25.2553H51.442V27.1277H49.5696V25.2553ZM47.6973 25.2553H49.5696V27.1277H47.6973V25.2553ZM45.825 23.383H47.6973V25.2553H45.825V23.383ZM45.825 25.2553H47.6973V27.1277H45.825V25.2553ZM47.6973 27.1277H49.5696V29H47.6973V27.1277ZM45.825 27.1277H47.6973V29H45.825V27.1277ZM43.9526 27.1277H45.825V29H43.9526V27.1277ZM42.0803 27.1277H43.9526V29H42.0803V27.1277ZM40.2079 27.1277H42.0803V29H40.2079V27.1277ZM38.3356 27.1277H40.2079V29H38.3356V27.1277ZM38.3356 25.2553H40.2079V27.1277H38.3356V25.2553ZM40.2079 25.2553H42.0803V27.1277H40.2079V25.2553ZM40.2079 23.383H42.0803V25.2553H40.2079V23.383ZM42.0803 23.383H43.9526V25.2553H42.0803V23.383ZM43.9526 23.383H45.825V25.2553H43.9526V23.383ZM43.9526 25.2553H45.825V27.1277H43.9526V25.2553ZM42.0803 25.2553H43.9526V27.1277H42.0803V25.2553ZM36.4633 25.2553H38.3356V27.1277H36.4633V25.2553ZM38.3356 23.383H40.2079V25.2553H38.3356V23.383ZM40.2079 21.5106H42.0803V23.383H40.2079V21.5106ZM38.3356 21.5106H40.2079V23.383H38.3356V21.5106ZM36.4633 21.5106H38.3356V23.383H36.4633V21.5106ZM36.4633 23.383H38.3356V25.2553H36.4633V23.383ZM34.5909 23.383H36.4633V25.2553H34.5909V23.383ZM34.5909 21.5106H36.4633V23.383H34.5909V21.5106ZM34.5909 19.6383H36.4633V21.5106H34.5909V19.6383ZM34.5909 17.766H36.4633V19.6383H34.5909V17.766ZM34.5909 15.8936H36.4633V17.766H34.5909V15.8936ZM34.5909 14.0213H36.4633V15.8936H34.5909V14.0213ZM34.5909 12.1489H36.4633V14.0213H34.5909V12.1489ZM34.5909 10.2766H36.4633V12.1489H34.5909V10.2766ZM34.5909 8.40426H36.4633V10.2766H34.5909V8.40426ZM34.5909 6.53192H36.4633V8.40426H34.5909V6.53192ZM36.4633 6.53192H38.3356V8.40426H36.4633V6.53192ZM38.3356 6.53192H40.2079V8.40426H38.3356V6.53192ZM40.2079 6.53192H42.0803V8.40426H40.2079V6.53192ZM38.3356 8.40426H40.2079V10.2766H38.3356V8.40426ZM38.3356 10.2766H40.2079V12.1489H38.3356V10.2766ZM38.3356 12.1489H40.2079V14.0213H38.3356V12.1489ZM38.3356 14.0213H40.2079V15.8936H38.3356V14.0213ZM38.3356 15.8936H40.2079V17.766H38.3356V15.8936ZM38.3356 17.766H40.2079V19.6383H38.3356V17.766ZM38.3356 19.6383H40.2079V21.5106H38.3356V19.6383ZM36.4633 19.6383H38.3356V21.5106H36.4633V19.6383ZM36.4633 17.766H38.3356V19.6383H36.4633V17.766ZM36.4633 15.8936H38.3356V17.766H36.4633V15.8936ZM36.4633 14.0213H38.3356V15.8936H36.4633V14.0213ZM36.4633 12.1489H38.3356V14.0213H36.4633V12.1489ZM36.4633 10.2766H38.3356V12.1489H36.4633V10.2766ZM36.4633 8.40426H38.3356V10.2766H36.4633V8.40426ZM60.7982 0.914894H62.6705V2.78724H60.7982V0.914894ZM62.6705 0.914894H64.5429V2.78724H62.6705V0.914894ZM64.5429 0.914894H66.4152V2.78724H64.5429V0.914894ZM66.4152 0.914894H68.2876V2.78724H66.4152V0.914894ZM68.2876 0.914894H70.1599V2.78724H68.2876V0.914894ZM70.1599 0.914894H72.0322V2.78724H70.1599V0.914894ZM70.1599 2.78724H72.0322V4.65958H70.1599V2.78724ZM72.0322 2.78724H73.9046V4.65958H72.0322V2.78724ZM68.2876 2.78724H70.1599V4.65958H68.2876V2.78724ZM66.4152 2.78724H68.2876V4.65958H66.4152V2.78724ZM64.5429 2.78724H66.4152V4.65958H64.5429V2.78724ZM62.6705 2.78724H64.5429V4.65958H62.6705V2.78724ZM60.7982 2.78724H62.6705V4.65958H60.7982V2.78724ZM58.9259 4.65958H60.7982V6.53192H58.9259V4.65958ZM58.9259 2.78724H60.7982V4.65958H58.9259V2.78724ZM57.0535 4.65958H58.9259V6.53192H57.0535V4.65958ZM60.7982 4.65958H62.6705V6.53192H60.7982V4.65958ZM62.6705 4.65958H64.5429V6.53192H62.6705V4.65958ZM64.5429 4.65958H66.4152V6.53192H64.5429V4.65958ZM66.4152 4.65958H68.2876V6.53192H66.4152V4.65958ZM68.2876 4.65958H70.1599V6.53192H68.2876V4.65958ZM70.1599 4.65958H72.0322V6.53192H70.1599V4.65958ZM72.0322 4.65958H73.9046V6.53192H72.0322V4.65958ZM73.9046 4.65958H75.7769V6.53192H73.9046V4.65958ZM73.9046 6.53192H75.7769V8.40426H73.9046V6.53192ZM72.0322 6.53192H73.9046V8.40426H72.0322V6.53192ZM70.1599 6.53192H72.0322V8.40426H70.1599V6.53192ZM68.2876 6.53192H70.1599V8.40426H68.2876V6.53192ZM70.1599 8.40426H72.0322V10.2766H70.1599V8.40426ZM70.1599 10.2766H72.0322V12.1489H70.1599V10.2766ZM70.1599 12.1489H72.0322V14.0213H70.1599V12.1489ZM70.1599 14.0213H72.0322V15.8936H70.1599V14.0213ZM70.1599 15.8936H72.0322V17.766H70.1599V15.8936ZM72.0322 14.0213H73.9046V15.8936H72.0322V14.0213ZM73.9046 14.0213H75.7769V15.8936H73.9046V14.0213ZM73.9046 12.1489H75.7769V14.0213H73.9046V12.1489ZM73.9046 10.2766H75.7769V12.1489H73.9046V10.2766ZM73.9046 8.40426H75.7769V10.2766H73.9046V8.40426ZM72.0322 8.40426H73.9046V10.2766H72.0322V8.40426ZM72.0322 10.2766H73.9046V12.1489H72.0322V10.2766ZM72.0322 12.1489H73.9046V14.0213H72.0322V12.1489ZM72.0322 15.8936H73.9046V17.766H72.0322V15.8936ZM72.0322 17.766H73.9046V19.6383H72.0322V17.766ZM73.9046 17.766H75.7769V19.6383H73.9046V17.766ZM73.9046 15.8936H75.7769V17.766H73.9046V15.8936ZM73.9046 19.6383H75.7769V21.5106H73.9046V19.6383ZM73.9046 21.5106H75.7769V23.383H73.9046V21.5106ZM73.9046 23.383H75.7769V25.2553H73.9046V23.383ZM72.0322 23.383H73.9046V25.2553H72.0322V23.383ZM72.0322 21.5106H73.9046V23.383H72.0322V21.5106ZM72.0322 19.6383H73.9046V21.5106H72.0322V19.6383ZM70.1599 17.766H72.0322V19.6383H70.1599V17.766ZM70.1599 19.6383H72.0322V21.5106H70.1599V19.6383ZM70.1599 21.5106H72.0322V23.383H70.1599V21.5106ZM68.2876 21.5106H70.1599V23.383H68.2876V21.5106ZM70.1599 23.383H72.0322V25.2553H70.1599V23.383ZM72.0322 25.2553H73.9046V27.1277H72.0322V25.2553ZM70.1599 25.2553H72.0322V27.1277H70.1599V25.2553ZM68.2876 23.383H70.1599V25.2553H68.2876V23.383ZM68.2876 25.2553H70.1599V27.1277H68.2876V25.2553ZM70.1599 27.1277H72.0322V29H70.1599V27.1277ZM68.2876 27.1277H70.1599V29H68.2876V27.1277ZM66.4152 27.1277H68.2876V29H66.4152V27.1277ZM64.5429 27.1277H66.4152V29H64.5429V27.1277ZM62.6705 27.1277H64.5429V29H62.6705V27.1277ZM60.7982 27.1277H62.6705V29H60.7982V27.1277ZM60.7982 25.2553H62.6705V27.1277H60.7982V25.2553ZM62.6705 25.2553H64.5429V27.1277H62.6705V25.2553ZM62.6705 23.383H64.5429V25.2553H62.6705V23.383ZM64.5429 23.383H66.4152V25.2553H64.5429V23.383ZM66.4152 23.383H68.2876V25.2553H66.4152V23.383ZM66.4152 25.2553H68.2876V27.1277H66.4152V25.2553ZM64.5429 25.2553H66.4152V27.1277H64.5429V25.2553ZM58.9259 25.2553H60.7982V27.1277H58.9259V25.2553ZM60.7982 23.383H62.6705V25.2553H60.7982V23.383ZM62.6705 21.5106H64.5429V23.383H62.6705V21.5106ZM60.7982 21.5106H62.6705V23.383H60.7982V21.5106ZM58.9259 21.5106H60.7982V23.383H58.9259V21.5106ZM58.9259 23.383H60.7982V25.2553H58.9259V23.383ZM57.0535 23.383H58.9259V25.2553H57.0535V23.383ZM57.0535 21.5106H58.9259V23.383H57.0535V21.5106ZM57.0535 19.6383H58.9259V21.5106H57.0535V19.6383ZM57.0535 17.766H58.9259V19.6383H57.0535V17.766ZM57.0535 15.8936H58.9259V17.766H57.0535V15.8936ZM57.0535 14.0213H58.9259V15.8936H57.0535V14.0213ZM57.0535 12.1489H58.9259V14.0213H57.0535V12.1489ZM57.0535 10.2766H58.9259V12.1489H57.0535V10.2766ZM57.0535 8.40426H58.9259V10.2766H57.0535V8.40426ZM57.0535 6.53192H58.9259V8.40426H57.0535V6.53192ZM58.9259 6.53192H60.7982V8.40426H58.9259V6.53192ZM60.7982 6.53192H62.6705V8.40426H60.7982V6.53192ZM62.6705 6.53192H64.5429V8.40426H62.6705V6.53192ZM60.7982 8.40426H62.6705V10.2766H60.7982V8.40426ZM60.7982 10.2766H62.6705V12.1489H60.7982V10.2766ZM60.7982 12.1489H62.6705V14.0213H60.7982V12.1489ZM60.7982 14.0213H62.6705V15.8936H60.7982V14.0213ZM60.7982 15.8936H62.6705V17.766H60.7982V15.8936ZM60.7982 17.766H62.6705V19.6383H60.7982V17.766ZM60.7982 19.6383H62.6705V21.5106H60.7982V19.6383ZM58.9259 19.6383H60.7982V21.5106H58.9259V19.6383ZM58.9259 17.766H60.7982V19.6383H58.9259V17.766ZM58.9259 15.8936H60.7982V17.766H58.9259V15.8936ZM58.9259 14.0213H60.7982V15.8936H58.9259V14.0213ZM58.9259 12.1489H60.7982V14.0213H58.9259V12.1489ZM58.9259 10.2766H60.7982V12.1489H58.9259V10.2766ZM58.9259 8.40426H60.7982V10.2766H58.9259V8.40426ZM81.3885 0.914894H83.2608V2.78724H81.3885V0.914894ZM81.3885 2.78724H83.2608V4.65958H81.3885V2.78724ZM81.3885 4.65958H83.2608V6.53192H81.3885V4.65958ZM81.3885 6.53192H83.2608V8.40426H81.3885V6.53192ZM81.3885 8.40426H83.2608V10.2766H81.3885V8.40426ZM81.3885 10.2766H83.2608V12.1489H81.3885V10.2766ZM81.3885 12.1489H83.2608V14.0213H81.3885V12.1489ZM81.3885 14.0213H83.2608V15.8936H81.3885V14.0213ZM81.3885 15.8936H83.2608V17.766H81.3885V15.8936ZM81.3885 17.766H83.2608V19.6383H81.3885V17.766ZM81.3885 19.6383H83.2608V21.5106H81.3885V19.6383ZM81.3885 21.5106H83.2608V23.383H81.3885V21.5106ZM81.3885 23.383H83.2608V25.2553H81.3885V23.383ZM81.3885 25.2553H83.2608V27.1277H81.3885V25.2553ZM81.3885 27.1277H83.2608V29H81.3885V27.1277ZM79.5161 27.1277H81.3885V29H79.5161V27.1277ZM79.5161 25.2553H81.3885V27.1277H79.5161V25.2553ZM79.5161 23.383H81.3885V25.2553H79.5161V23.383ZM79.5161 2.78724H81.3885V4.65958H79.5161V2.78724ZM79.5161 0.914894H81.3885V2.78724H79.5161V0.914894ZM79.5161 4.65958H81.3885V6.53192H79.5161V4.65958ZM79.5161 6.53192H81.3885V8.40426H79.5161V6.53192ZM79.5161 8.40426H81.3885V10.2766H79.5161V8.40426ZM79.5161 10.2766H81.3885V12.1489H79.5161V10.2766ZM79.5161 12.1489H81.3885V14.0213H79.5161V12.1489ZM79.5161 14.0213H81.3885V15.8936H79.5161V14.0213ZM79.5161 15.8936H81.3885V17.766H79.5161V15.8936ZM79.5161 17.766H81.3885V19.6383H79.5161V17.766ZM79.5161 19.6383H81.3885V21.5106H79.5161V19.6383ZM79.5161 21.5106H81.3885V23.383H79.5161V21.5106ZM83.2608 27.1277H85.1331V29H83.2608V27.1277ZM83.2608 25.2553H85.1331V27.1277H83.2608V25.2553ZM83.2608 23.383H85.1331V25.2553H83.2608V23.383ZM83.2608 21.5106H85.1331V23.383H83.2608V21.5106ZM83.2608 17.766H85.1331V19.6383H83.2608V17.766ZM83.2608 15.8936H85.1331V17.766H83.2608V15.8936ZM83.2608 14.0213H85.1331V15.8936H83.2608V14.0213ZM83.2608 12.1489H85.1331V14.0213H83.2608V12.1489ZM83.2608 10.2766H85.1331V12.1489H83.2608V10.2766ZM83.2608 8.40426H85.1331V10.2766H83.2608V8.40426ZM83.2608 0.914894H85.1331V2.78724H83.2608V0.914894ZM83.2608 2.78724H85.1331V4.65958H83.2608V2.78724ZM83.2608 4.65958H85.1331V6.53192H83.2608V4.65958ZM83.2608 6.53192H85.1331V8.40426H83.2608V6.53192ZM83.2608 19.6383H85.1331V21.5106H83.2608V19.6383ZM85.1331 27.1277H87.0055V29H85.1331V27.1277ZM87.0055 27.1277H88.8778V29H87.0055V27.1277ZM88.8778 27.1277H90.7502V29H88.8778V27.1277ZM88.8778 25.2553H90.7502V27.1277H88.8778V25.2553ZM88.8778 23.383H90.7502V25.2553H88.8778V23.383ZM87.0055 23.383H88.8778V25.2553H87.0055V23.383ZM87.0055 25.2553H88.8778V27.1277H87.0055V25.2553ZM85.1331 25.2553H87.0055V27.1277H85.1331V25.2553ZM85.1331 23.383H87.0055V25.2553H85.1331V23.383ZM90.7502 23.383H92.6225V25.2553H90.7502V23.383ZM90.7502 25.2553H92.6225V27.1277H90.7502V25.2553ZM90.7502 27.1277H92.6225V29H90.7502V27.1277ZM92.6225 27.1277H94.4948V29H92.6225V27.1277ZM92.6225 25.2553H94.4948V27.1277H92.6225V25.2553ZM92.6225 23.383H94.4948V25.2553H92.6225V23.383ZM105.716 0.914894H107.588V2.78724H105.716V0.914894ZM107.588 0.914894H109.461V2.78724H107.588V0.914894ZM107.588 2.78724H109.461V4.65958H107.588V2.78724ZM109.461 2.78724H111.333V4.65958H109.461V2.78724ZM105.716 2.78724H107.588V4.65958H105.716V2.78724ZM103.844 2.78724H105.716V4.65958H103.844V2.78724ZM103.844 4.65958H105.716V6.53192H103.844V4.65958ZM101.971 4.65958H103.844V6.53192H101.971V4.65958ZM105.716 4.65958H107.588V6.53192H105.716V4.65958ZM107.588 4.65958H109.461V6.53192H107.588V4.65958ZM109.461 4.65958H111.333V6.53192H109.461V4.65958ZM111.333 4.65958H113.205V6.53192H111.333V4.65958ZM111.333 6.53192H113.205V8.40426H111.333V6.53192ZM113.205 6.53192H115.078V8.40426H113.205V6.53192ZM109.461 6.53192H111.333V8.40426H109.461V6.53192ZM107.588 6.53192H109.461V8.40426H107.588V6.53192ZM105.716 6.53192H107.588V8.40426H105.716V6.53192ZM103.844 6.53192H105.716V8.40426H103.844V6.53192ZM101.971 6.53192H103.844V8.40426H101.971V6.53192ZM100.099 6.53192H101.971V8.40426H100.099V6.53192ZM103.844 8.40426H105.716V10.2766H103.844V8.40426ZM101.971 8.40426H103.844V10.2766H101.971V8.40426ZM100.099 8.40426H101.971V10.2766H100.099V8.40426ZM98.2267 8.40426H100.099V10.2766H98.2267V8.40426ZM98.2267 10.2766H100.099V12.1489H98.2267V10.2766ZM98.2267 12.1489H100.099V14.0213H98.2267V12.1489ZM100.099 12.1489H101.971V14.0213H100.099V12.1489ZM100.099 10.2766H101.971V12.1489H100.099V10.2766ZM101.971 10.2766H103.844V12.1489H101.971V10.2766ZM101.971 12.1489H103.844V14.0213H101.971V12.1489ZM101.971 14.0213H103.844V15.8936H101.971V14.0213ZM100.099 14.0213H101.971V15.8936H100.099V14.0213ZM98.2267 14.0213H100.099V15.8936H98.2267V14.0213ZM98.2267 15.8936H100.099V17.766H98.2267V15.8936ZM100.099 15.8936H101.971V17.766H100.099V15.8936ZM101.971 15.8936H103.844V17.766H101.971V15.8936ZM103.844 15.8936H105.716V17.766H103.844V15.8936ZM105.716 15.8936H107.588V17.766H105.716V15.8936ZM107.588 15.8936H109.461V17.766H107.588V15.8936ZM109.461 15.8936H111.333V17.766H109.461V15.8936ZM111.333 14.0213H113.205V15.8936H111.333V14.0213ZM113.205 14.0213H115.078V15.8936H113.205V14.0213ZM113.205 15.8936H115.078V17.766H113.205V15.8936ZM111.333 15.8936H113.205V17.766H111.333V15.8936ZM115.078 15.8936H116.95V17.766H115.078V15.8936ZM115.078 14.0213H116.95V15.8936H115.078V14.0213ZM115.078 12.1489H116.95V14.0213H115.078V12.1489ZM115.078 10.2766H116.95V12.1489H115.078V10.2766ZM115.078 8.40426H116.95V10.2766H115.078V8.40426ZM113.205 8.40426H115.078V10.2766H113.205V8.40426ZM111.333 8.40426H113.205V10.2766H111.333V8.40426ZM109.461 8.40426H111.333V10.2766H109.461V8.40426ZM113.205 10.2766H115.078V12.1489H113.205V10.2766ZM113.205 12.1489H115.078V14.0213H113.205V12.1489ZM111.333 12.1489H113.205V14.0213H111.333V12.1489ZM111.333 10.2766H113.205V12.1489H111.333V10.2766ZM98.2267 17.766H100.099V19.6383H98.2267V17.766ZM100.099 17.766H101.971V19.6383H100.099V17.766ZM101.971 17.766H103.844V19.6383H101.971V17.766ZM103.844 17.766H105.716V19.6383H103.844V17.766ZM105.716 17.766H107.588V19.6383H105.716V17.766ZM107.588 17.766H109.461V19.6383H107.588V17.766ZM109.461 17.766H111.333V19.6383H109.461V17.766ZM111.333 17.766H113.205V19.6383H111.333V17.766ZM113.205 17.766H115.078V19.6383H113.205V17.766ZM115.078 17.766H116.95V19.6383H115.078V17.766ZM115.078 19.6383H116.95V21.5106H115.078V19.6383ZM113.205 19.6383H115.078V21.5106H113.205V19.6383ZM111.333 19.6383H113.205V21.5106H111.333V19.6383ZM109.461 19.6383H111.333V21.5106H109.461V19.6383ZM107.588 19.6383H109.461V21.5106H107.588V19.6383ZM105.716 19.6383H107.588V21.5106H105.716V19.6383ZM103.844 19.6383H105.716V21.5106H103.844V19.6383ZM100.099 19.6383H101.971V21.5106H100.099V19.6383ZM98.2267 19.6383H100.099V21.5106H98.2267V19.6383ZM101.971 19.6383H103.844V21.5106H101.971V19.6383ZM101.971 21.5106H103.844V23.383H101.971V21.5106ZM101.971 23.383H103.844V25.2553H101.971V23.383ZM101.971 25.2553H103.844V27.1277H101.971V25.2553ZM101.971 27.1277H103.844V29H101.971V27.1277ZM100.099 27.1277H101.971V29H100.099V27.1277ZM98.2267 27.1277H100.099V29H98.2267V27.1277ZM98.2267 25.2553H100.099V27.1277H98.2267V25.2553ZM98.2267 23.383H100.099V25.2553H98.2267V23.383ZM98.2267 21.5106H100.099V23.383H98.2267V21.5106ZM100.099 21.5106H101.971V23.383H100.099V21.5106ZM100.099 23.383H101.971V25.2553H100.099V23.383ZM100.099 25.2553H101.971V27.1277H100.099V25.2553ZM111.333 21.5106H113.205V23.383H111.333V21.5106ZM111.333 23.383H113.205V25.2553H111.333V23.383ZM111.333 25.2553H113.205V27.1277H111.333V25.2553ZM111.333 27.1277H113.205V29H111.333V27.1277ZM113.205 27.1277H115.078V29H113.205V27.1277ZM115.078 27.1277H116.95V29H115.078V27.1277ZM115.078 25.2553H116.95V27.1277H115.078V25.2553ZM115.078 23.383H116.95V25.2553H115.078V23.383ZM115.078 21.5106H116.95V23.383H115.078V21.5106ZM113.205 21.5106H115.078V23.383H113.205V21.5106ZM113.205 23.383H115.078V25.2553H113.205V23.383ZM113.205 25.2553H115.078V27.1277H113.205V25.2553ZM135.668 0.914894H137.54V2.78724H135.668V0.914894ZM133.796 0.914894H135.668V2.78724H133.796V0.914894ZM131.923 0.914894H133.796V2.78724H131.923V0.914894ZM128.179 0.914894H130.051V2.78724H128.179V0.914894ZM126.306 0.914894H128.179V2.78724H126.306V0.914894ZM124.434 0.914894H126.306V2.78724H124.434V0.914894ZM130.051 0.914894H131.923V2.78724H130.051V0.914894ZM130.051 2.78724H131.923V4.65958H130.051V2.78724ZM131.923 2.78724H133.796V4.65958H131.923V2.78724ZM133.796 2.78724H135.668V4.65958H133.796V2.78724ZM135.668 2.78724H137.54V4.65958H135.668V2.78724ZM137.54 2.78724H139.413V4.65958H137.54V2.78724ZM128.179 2.78724H130.051V4.65958H128.179V2.78724ZM126.306 2.78724H128.179V4.65958H126.306V2.78724ZM124.434 2.78724H126.306V4.65958H124.434V2.78724ZM122.562 2.78724H124.434V4.65958H122.562V2.78724ZM120.689 4.65958H122.562V6.53192H120.689V4.65958ZM122.562 4.65958H124.434V6.53192H122.562V4.65958ZM124.434 4.65958H126.306V6.53192H124.434V4.65958ZM126.306 4.65958H128.179V6.53192H126.306V4.65958ZM128.179 4.65958H130.051V6.53192H128.179V4.65958ZM130.051 4.65958H131.923V6.53192H130.051V4.65958ZM131.923 4.65958H133.796V6.53192H131.923V4.65958ZM133.796 4.65958H135.668V6.53192H133.796V4.65958ZM135.668 4.65958H137.54V6.53192H135.668V4.65958ZM137.54 4.65958H139.413V6.53192H137.54V4.65958ZM139.413 4.65958H141.285V6.53192H139.413V4.65958ZM139.413 6.53192H141.285V8.40426H139.413V6.53192ZM139.413 8.40426H141.285V10.2766H139.413V8.40426ZM137.54 8.40426H139.413V10.2766H137.54V8.40426ZM137.54 6.53192H139.413V8.40426H137.54V6.53192ZM135.668 8.40426H137.54V10.2766H135.668V8.40426ZM135.668 6.53192H137.54V8.40426H135.668V6.53192ZM133.796 6.53192H135.668V8.40426H133.796V6.53192ZM126.306 6.53192H128.179V8.40426H126.306V6.53192ZM124.434 6.53192H126.306V8.40426H124.434V6.53192ZM122.562 6.53192H124.434V8.40426H122.562V6.53192ZM120.689 6.53192H122.562V8.40426H120.689V6.53192ZM120.689 8.40426H122.562V10.2766H120.689V8.40426ZM122.562 8.40426H124.434V10.2766H122.562V8.40426ZM122.562 10.2766H124.434V12.1489H122.562V10.2766ZM124.434 8.40426H126.306V10.2766H124.434V8.40426ZM124.434 10.2766H126.306V12.1489H124.434V10.2766ZM126.306 10.2766H128.179V12.1489H126.306V10.2766ZM120.689 10.2766H122.562V12.1489H120.689V10.2766ZM120.689 12.1489H122.562V14.0213H120.689V12.1489ZM122.562 12.1489H124.434V14.0213H122.562V12.1489ZM122.562 14.0213H124.434V15.8936H122.562V14.0213ZM124.434 14.0213H126.306V15.8936H124.434V14.0213ZM124.434 12.1489H126.306V14.0213H124.434V12.1489ZM126.306 12.1489H128.179V14.0213H126.306V12.1489ZM126.306 14.0213H128.179V15.8936H126.306V14.0213ZM124.434 15.8936H126.306V17.766H124.434V15.8936ZM126.306 15.8936H128.179V17.766H126.306V15.8936ZM128.179 15.8936H130.051V17.766H128.179V15.8936ZM130.051 15.8936H131.923V17.766H130.051V15.8936ZM131.923 15.8936H133.796V17.766H131.923V15.8936ZM131.923 14.0213H133.796V15.8936H131.923V14.0213ZM133.796 14.0213H135.668V15.8936H133.796V14.0213ZM135.668 14.0213H137.54V15.8936H135.668V14.0213ZM135.668 12.1489H137.54V14.0213H135.668V12.1489ZM133.796 12.1489H135.668V14.0213H133.796V12.1489ZM131.923 12.1489H133.796V14.0213H131.923V12.1489ZM130.051 12.1489H131.923V14.0213H130.051V12.1489ZM130.051 14.0213H131.923V15.8936H130.051V14.0213ZM128.179 14.0213H130.051V15.8936H128.179V14.0213ZM128.179 12.1489H130.051V14.0213H128.179V12.1489ZM137.54 14.0213H139.413V15.8936H137.54V14.0213ZM137.54 15.8936H139.413V17.766H137.54V15.8936ZM135.668 15.8936H137.54V17.766H135.668V15.8936ZM135.668 17.766H137.54V19.6383H135.668V17.766ZM133.796 17.766H135.668V19.6383H133.796V17.766ZM133.796 15.8936H135.668V17.766H133.796V15.8936ZM137.54 17.766H139.413V19.6383H137.54V17.766ZM139.413 17.766H141.285V19.6383H139.413V17.766ZM139.413 15.8936H141.285V17.766H139.413V15.8936ZM139.413 19.6383H141.285V21.5106H139.413V19.6383ZM139.413 21.5106H141.285V23.383H139.413V21.5106ZM139.413 23.383H141.285V25.2553H139.413V23.383ZM137.54 23.383H139.413V25.2553H137.54V23.383ZM137.54 25.2553H139.413V27.1277H137.54V25.2553ZM135.668 25.2553H137.54V27.1277H135.668V25.2553ZM135.668 23.383H137.54V25.2553H135.668V23.383ZM133.796 23.383H135.668V25.2553H133.796V23.383ZM133.796 21.5106H135.668V23.383H133.796V21.5106ZM135.668 21.5106H137.54V23.383H135.668V21.5106ZM135.668 19.6383H137.54V21.5106H135.668V19.6383ZM137.54 19.6383H139.413V21.5106H137.54V19.6383ZM137.54 21.5106H139.413V23.383H137.54V21.5106ZM120.689 19.6383H122.562V21.5106H120.689V19.6383ZM120.689 21.5106H122.562V23.383H120.689V21.5106ZM122.562 21.5106H124.434V23.383H122.562V21.5106ZM122.562 19.6383H124.434V21.5106H122.562V19.6383ZM124.434 19.6383H126.306V21.5106H124.434V19.6383ZM124.434 21.5106H126.306V23.383H124.434V21.5106ZM120.689 23.383H122.562V25.2553H120.689V23.383ZM122.562 23.383H124.434V25.2553H122.562V23.383ZM126.306 21.5106H128.179V23.383H126.306V21.5106ZM126.306 23.383H128.179V25.2553H126.306V23.383ZM124.434 23.383H126.306V25.2553H124.434V23.383ZM124.434 25.2553H126.306V27.1277H124.434V25.2553ZM122.562 25.2553H124.434V27.1277H122.562V25.2553ZM124.434 27.1277H126.306V29H124.434V27.1277ZM126.306 27.1277H128.179V29H126.306V27.1277ZM128.179 27.1277H130.051V29H128.179V27.1277ZM130.051 27.1277H131.923V29H130.051V27.1277ZM131.923 27.1277H133.796V29H131.923V27.1277ZM133.796 27.1277H135.668V29H133.796V27.1277ZM135.668 27.1277H137.54V29H135.668V27.1277ZM133.796 25.2553H135.668V27.1277H133.796V25.2553ZM131.923 25.2553H133.796V27.1277H131.923V25.2553ZM130.051 25.2553H131.923V27.1277H130.051V25.2553ZM130.051 23.383H131.923V25.2553H130.051V23.383ZM128.179 23.383H130.051V25.2553H128.179V23.383ZM131.923 23.383H133.796V25.2553H131.923V23.383ZM128.179 25.2553H130.051V27.1277H128.179V25.2553ZM126.306 25.2553H128.179V27.1277H126.306V25.2553ZM156.284 0.914894H158.156V2.78724H156.284V0.914894ZM158.156 0.914894H160.029V2.78724H158.156V0.914894ZM160.029 0.914894H161.901V2.78724H160.029V0.914894ZM161.901 0.914894H163.773V2.78724H161.901V0.914894ZM163.773 0.914894H165.646V2.78724H163.773V0.914894ZM165.646 0.914894H167.518V2.78724H165.646V0.914894ZM167.518 0.914894H169.39V2.78724H167.518V0.914894ZM169.39 0.914894H171.263V2.78724H169.39V0.914894ZM169.39 2.78724H171.263V4.65958H169.39V2.78724ZM171.263 2.78724H173.135V4.65958H171.263V2.78724ZM167.518 2.78724H169.39V4.65958H167.518V2.78724ZM165.646 2.78724H167.518V4.65958H165.646V2.78724ZM163.773 2.78724H165.646V4.65958H163.773V2.78724ZM161.901 2.78724H163.773V4.65958H161.901V2.78724ZM160.029 2.78724H161.901V4.65958H160.029V2.78724ZM158.156 2.78724H160.029V4.65958H158.156V2.78724ZM156.284 2.78724H158.156V4.65958H156.284V2.78724ZM156.284 4.65958H158.156V6.53192H156.284V4.65958ZM158.156 4.65958H160.029V6.53192H158.156V4.65958ZM160.029 4.65958H161.901V6.53192H160.029V4.65958ZM161.901 4.65958H163.773V6.53192H161.901V4.65958ZM165.646 4.65958H167.518V6.53192H165.646V4.65958ZM167.518 4.65958H169.39V6.53192H167.518V4.65958ZM169.39 4.65958H171.263V6.53192H169.39V4.65958ZM171.263 4.65958H173.135V6.53192H171.263V4.65958ZM173.135 4.65958H175.007V6.53192H173.135V4.65958ZM163.773 4.65958H165.646V6.53192H163.773V4.65958ZM167.518 6.53192H169.39V8.40426H167.518V6.53192ZM169.39 6.53192H171.263V8.40426H169.39V6.53192ZM173.135 6.53192H175.007V8.40426H173.135V6.53192ZM171.263 6.53192H173.135V8.40426H171.263V6.53192ZM171.263 8.40426H173.135V10.2766H171.263V8.40426ZM171.263 12.1489H173.135V14.0213H171.263V12.1489ZM173.135 12.1489H175.007V14.0213H173.135V12.1489ZM173.135 14.0213H175.007V15.8936H173.135V14.0213ZM173.135 8.40426H175.007V10.2766H173.135V8.40426ZM169.39 12.1489H171.263V14.0213H169.39V12.1489ZM169.39 8.40426H171.263V10.2766H169.39V8.40426ZM167.518 12.1489H169.39V14.0213H167.518V12.1489ZM169.39 14.0213H171.263V15.8936H169.39V14.0213ZM171.263 14.0213H173.135V15.8936H171.263V14.0213ZM171.263 15.8936H173.135V17.766H171.263V15.8936ZM167.518 17.766H169.39V19.6383H167.518V17.766ZM169.39 17.766H171.263V19.6383H169.39V17.766ZM169.39 15.8936H171.263V17.766H169.39V15.8936ZM167.518 15.8936H169.39V17.766H167.518V15.8936ZM167.518 14.0213H169.39V15.8936H167.518V14.0213ZM165.646 17.766H167.518V19.6383H165.646V17.766ZM163.773 17.766H165.646V19.6383H163.773V17.766ZM161.901 17.766H163.773V19.6383H161.901V17.766ZM161.901 15.8936H163.773V17.766H161.901V15.8936ZM163.773 15.8936H165.646V17.766H163.773V15.8936ZM163.773 14.0213H165.646V15.8936H163.773V14.0213ZM165.646 14.0213H167.518V15.8936H165.646V14.0213ZM161.901 14.0213H163.773V15.8936H161.901V14.0213ZM165.646 15.8936H167.518V17.766H165.646V15.8936ZM158.156 6.53192H160.029V8.40426H158.156V6.53192ZM160.029 6.53192H161.901V8.40426H160.029V6.53192ZM160.029 8.40426H161.901V10.2766H160.029V8.40426ZM160.029 10.2766H161.901V12.1489H160.029V10.2766ZM160.029 12.1489H161.901V14.0213H160.029V12.1489ZM158.156 12.1489H160.029V14.0213H158.156V12.1489ZM156.284 12.1489H158.156V14.0213H156.284V12.1489ZM156.284 10.2766H158.156V12.1489H156.284V10.2766ZM156.284 8.40426H158.156V10.2766H156.284V8.40426ZM156.284 6.53192H158.156V8.40426H156.284V6.53192ZM158.156 10.2766H160.029V12.1489H158.156V10.2766ZM158.156 14.0213H160.029V15.8936H158.156V14.0213ZM158.156 8.40426H160.029V10.2766H158.156V8.40426ZM156.284 14.0213H158.156V15.8936H156.284V14.0213ZM156.284 15.8936H158.156V17.766H156.284V15.8936ZM158.156 15.8936H160.029V17.766H158.156V15.8936ZM160.029 14.0213H161.901V15.8936H160.029V14.0213ZM160.029 15.8936H161.901V17.766H160.029V15.8936ZM160.029 17.766H161.901V19.6383H160.029V17.766ZM160.029 19.6383H161.901V21.5106H160.029V19.6383ZM160.029 21.5106H161.901V23.383H160.029V21.5106ZM160.029 23.383H161.901V25.2553H160.029V23.383ZM160.029 27.1277H161.901V29H160.029V27.1277ZM158.156 27.1277H160.029V29H158.156V27.1277ZM156.284 27.1277H158.156V29H156.284V27.1277ZM156.284 25.2553H158.156V27.1277H156.284V25.2553ZM156.284 23.383H158.156V25.2553H156.284V23.383ZM156.284 21.5106H158.156V23.383H156.284V21.5106ZM156.284 19.6383H158.156V21.5106H156.284V19.6383ZM156.284 17.766H158.156V19.6383H156.284V17.766ZM158.156 17.766H160.029V19.6383H158.156V17.766ZM158.156 19.6383H160.029V21.5106H158.156V19.6383ZM158.156 21.5106H160.029V23.383H158.156V21.5106ZM158.156 23.383H160.029V25.2553H158.156V23.383ZM158.156 25.2553H160.029V27.1277H158.156V25.2553ZM160.029 25.2553H161.901V27.1277H160.029V25.2553ZM173.135 10.2766H175.007V12.1489H173.135V10.2766ZM171.263 10.2766H173.135V12.1489H171.263V10.2766ZM169.39 10.2766H171.263V12.1489H169.39V10.2766ZM178.747 27.1277H180.619V29H178.747V27.1277ZM180.619 27.1277H182.491V29H180.619V27.1277ZM182.491 27.1277H184.364V29H182.491V27.1277ZM182.491 25.2553H184.364V27.1277H182.491V25.2553ZM182.491 23.383H184.364V25.2553H182.491V23.383ZM182.491 21.5106H184.364V23.383H182.491V21.5106ZM182.491 19.6383H184.364V21.5106H182.491V19.6383ZM182.491 17.766H184.364V19.6383H182.491V17.766ZM182.491 15.8936H184.364V17.766H182.491V15.8936ZM182.491 14.0213H184.364V15.8936H182.491V14.0213ZM182.491 12.1489H184.364V14.0213H182.491V12.1489ZM180.619 12.1489H182.491V14.0213H180.619V12.1489ZM180.619 10.2766H182.491V12.1489H180.619V10.2766ZM178.747 12.1489H180.619V14.0213H178.747V12.1489ZM178.747 14.0213H180.619V15.8936H178.747V14.0213ZM178.747 15.8936H180.619V17.766H178.747V15.8936ZM178.747 17.766H180.619V19.6383H178.747V17.766ZM178.747 19.6383H180.619V21.5106H178.747V19.6383ZM178.747 21.5106H180.619V23.383H178.747V21.5106ZM178.747 23.383H180.619V25.2553H178.747V23.383ZM178.747 25.2553H180.619V27.1277H178.747V25.2553ZM180.619 25.2553H182.491V27.1277H180.619V25.2553ZM180.619 23.383H182.491V25.2553H180.619V23.383ZM180.619 21.5106H182.491V23.383H180.619V21.5106ZM178.747 10.2766H180.619V12.1489H178.747V10.2766ZM182.491 10.2766H184.364V12.1489H182.491V10.2766ZM180.619 14.0213H182.491V15.8936H180.619V14.0213ZM180.619 15.8936H182.491V17.766H180.619V15.8936ZM180.619 17.766H182.491V19.6383H180.619V17.766ZM180.619 19.6383H182.491V21.5106H180.619V19.6383ZM178.747 0.914894H180.619V2.78724H178.747V0.914894ZM180.619 0.914894H182.491V2.78724H180.619V0.914894ZM182.491 0.914894H184.364V2.78724H182.491V0.914894ZM182.491 2.78724H184.364V4.65958H182.491V2.78724ZM182.491 4.65958H184.364V6.53192H182.491V4.65958ZM182.491 6.53192H184.364V8.40426H182.491V6.53192ZM182.491 8.40426H184.364V10.2766H182.491V8.40426ZM180.619 8.40426H182.491V10.2766H180.619V8.40426ZM180.619 6.53192H182.491V8.40426H180.619V6.53192ZM180.619 4.65958H182.491V6.53192H180.619V4.65958ZM180.619 2.78724H182.491V4.65958H180.619V2.78724ZM178.747 2.78724H180.619V4.65958H178.747V2.78724ZM178.747 4.65958H180.619V6.53192H178.747V4.65958ZM178.747 6.53192H180.619V8.40426H178.747V6.53192ZM178.747 8.40426H180.619V10.2766H178.747V8.40426ZM193.744 27.1277H195.616V29H193.744V27.1277ZM195.616 27.1277H197.488V29H195.616V27.1277ZM197.488 27.1277H199.361V29H197.488V27.1277ZM197.488 25.2553H199.361V27.1277H197.488V25.2553ZM197.488 23.383H199.361V25.2553H197.488V23.383ZM197.488 21.5106H199.361V23.383H197.488V21.5106ZM197.488 19.6383H199.361V21.5106H197.488V19.6383ZM197.488 17.766H199.361V19.6383H197.488V17.766ZM197.488 15.8936H199.361V17.766H197.488V15.8936ZM197.488 14.0213H199.361V15.8936H197.488V14.0213ZM197.488 12.1489H199.361V14.0213H197.488V12.1489ZM197.488 10.2766H199.361V12.1489H197.488V10.2766ZM197.488 8.40426H199.361V10.2766H197.488V8.40426ZM197.488 6.53192H199.361V8.40426H197.488V6.53192ZM195.616 6.53192H197.488V8.40426H195.616V6.53192ZM195.616 4.65958H197.488V6.53192H195.616V4.65958ZM197.488 4.65958H199.361V6.53192H197.488V4.65958ZM193.744 4.65958H195.616V6.53192H193.744V4.65958ZM193.744 12.1489H195.616V14.0213H193.744V12.1489ZM193.744 14.0213H195.616V15.8936H193.744V14.0213ZM193.744 15.8936H195.616V17.766H193.744V15.8936ZM193.744 17.766H195.616V19.6383H193.744V17.766ZM193.744 19.6383H195.616V21.5106H193.744V19.6383ZM195.616 21.5106H197.488V23.383H195.616V21.5106ZM195.616 23.383H197.488V25.2553H195.616V23.383ZM195.616 25.2553H197.488V27.1277H195.616V25.2553ZM193.744 25.2553H195.616V27.1277H193.744V25.2553ZM193.744 23.383H195.616V25.2553H193.744V23.383ZM193.744 21.5106H195.616V23.383H193.744V21.5106ZM195.616 14.0213H197.488V15.8936H195.616V14.0213ZM195.616 12.1489H197.488V14.0213H195.616V12.1489ZM195.616 10.2766H197.488V12.1489H195.616V10.2766ZM195.616 8.40426H197.488V10.2766H195.616V8.40426ZM193.744 8.40426H195.616V10.2766H193.744V8.40426ZM193.744 10.2766H195.616V12.1489H193.744V10.2766ZM195.616 19.6383H197.488V21.5106H195.616V19.6383ZM195.616 17.766H197.488V19.6383H195.616V17.766ZM195.616 15.8936H197.488V17.766H195.616V15.8936ZM193.744 6.53192H195.616V8.40426H193.744V6.53192ZM193.744 2.78724H195.616V4.65958H193.744V2.78724ZM195.616 2.78724H197.488V4.65958H195.616V2.78724ZM197.488 2.78724H199.361V4.65958H197.488V2.78724ZM197.488 0.914894H199.361V2.78724H197.488V0.914894ZM195.616 0.914894H197.488V2.78724H195.616V0.914894ZM193.744 0.914894H195.616V2.78724H193.744V0.914894ZM191.871 0.914894H193.744V2.78724H191.871V0.914894ZM189.999 0.914894H191.871V2.78724H189.999V0.914894ZM189.999 2.78724H191.871V4.65958H189.999V2.78724ZM189.999 4.65958H191.871V6.53192H189.999V4.65958ZM191.871 2.78724H193.744V4.65958H191.871V2.78724ZM191.871 4.65958H193.744V6.53192H191.871V4.65958ZM199.361 0.914894H201.233V2.78724H199.361V0.914894ZM201.233 0.914894H203.105V2.78724H201.233V0.914894ZM201.233 2.78724H203.105V4.65958H201.233V2.78724ZM201.233 4.65958H203.105V6.53192H201.233V4.65958ZM199.361 4.65958H201.233V6.53192H199.361V4.65958ZM199.361 2.78724H201.233V4.65958H199.361V2.78724ZM203.105 0.914894H204.978V2.78724H203.105V0.914894ZM203.105 2.78724H204.978V4.65958H203.105V2.78724ZM203.105 4.65958H204.978V6.53192H203.105V4.65958ZM188.126 0.914894H189.999V2.78724H188.126V0.914894ZM188.126 2.78724H189.999V4.65958H188.126V2.78724ZM188.126 4.65958H189.999V6.53192H188.126V4.65958ZM208.713 0.914894H210.585V2.78724H208.713V0.914894ZM210.585 0.914894H212.458V2.78724H210.585V0.914894ZM212.458 0.914894H214.33V2.78724H212.458V0.914894ZM214.33 0.914894H216.202V2.78724H214.33V0.914894ZM216.202 0.914894H218.075V2.78724H216.202V0.914894ZM218.075 0.914894H219.947V2.78724H218.075V0.914894ZM221.819 2.78724H223.692V4.65958H221.819V2.78724ZM221.819 0.914894H223.692V2.78724H221.819V0.914894ZM218.075 2.78724H219.947V4.65958H218.075V2.78724ZM216.202 2.78724H218.075V4.65958H216.202V2.78724ZM214.33 2.78724H216.202V4.65958H214.33V2.78724ZM212.458 2.78724H214.33V4.65958H212.458V2.78724ZM210.585 2.78724H212.458V4.65958H210.585V2.78724ZM210.585 4.65958H212.458V6.53192H210.585V4.65958ZM208.713 4.65958H210.585V6.53192H208.713V4.65958ZM208.713 2.78724H210.585V4.65958H208.713V2.78724ZM212.458 4.65958H214.33V6.53192H212.458V4.65958ZM214.33 4.65958H216.202V6.53192H214.33V4.65958ZM216.202 4.65958H218.075V6.53192H216.202V4.65958ZM218.075 4.65958H219.947V6.53192H218.075V4.65958ZM221.819 4.65958H223.692V6.53192H221.819V4.65958ZM221.819 6.53192H223.692V8.40426H221.819V6.53192ZM219.947 8.40426H221.819V10.2766H219.947V8.40426ZM219.947 10.2766H221.819V12.1489H219.947V10.2766ZM219.947 12.1489H221.819V14.0213H219.947V12.1489ZM218.075 12.1489H219.947V14.0213H218.075V12.1489ZM216.202 12.1489H218.075V14.0213H216.202V12.1489ZM218.075 10.2766H219.947V12.1489H218.075V10.2766ZM216.202 14.0213H218.075V15.8936H216.202V14.0213ZM218.075 14.0213H219.947V15.8936H218.075V14.0213ZM214.33 14.0213H216.202V15.8936H214.33V14.0213ZM212.458 15.8936H214.33V17.766H212.458V15.8936ZM214.33 15.8936H216.202V17.766H214.33V15.8936ZM216.202 15.8936H218.075V17.766H216.202V15.8936ZM216.202 17.766H218.075V19.6383H216.202V17.766ZM214.33 17.766H216.202V19.6383H214.33V17.766ZM212.458 17.766H214.33V19.6383H212.458V17.766ZM210.585 17.766H212.458V19.6383H210.585V17.766ZM210.585 19.6383H212.458V21.5106H210.585V19.6383ZM208.713 19.6383H210.585V21.5106H208.713V19.6383ZM212.458 19.6383H214.33V21.5106H212.458V19.6383ZM214.33 19.6383H216.202V21.5106H214.33V19.6383ZM212.458 21.5106H214.33V23.383H212.458V21.5106ZM210.585 21.5106H212.458V23.383H210.585V21.5106ZM208.713 21.5106H210.585V23.383H208.713V21.5106ZM208.713 23.383H210.585V25.2553H208.713V23.383ZM208.713 25.2553H210.585V27.1277H208.713V25.2553ZM208.713 27.1277H210.585V29H208.713V27.1277ZM210.585 27.1277H212.458V29H210.585V27.1277ZM212.458 27.1277H214.33V29H212.458V27.1277ZM216.202 25.2553H218.075V27.1277H216.202V25.2553ZM218.075 25.2553H219.947V27.1277H218.075V25.2553ZM219.947 25.2553H221.819V27.1277H219.947V25.2553ZM221.819 25.2553H223.692V27.1277H221.819V25.2553ZM223.692 25.2553H225.564V27.1277H223.692V25.2553ZM223.692 23.383H225.564V25.2553H223.692V23.383ZM221.819 23.383H223.692V25.2553H221.819V23.383ZM212.458 23.383H214.33V25.2553H212.458V23.383ZM210.585 23.383H212.458V25.2553H210.585V23.383ZM219.947 23.383H221.819V25.2553H219.947V23.383ZM218.075 23.383H219.947V25.2553H218.075V23.383ZM216.202 23.383H218.075V25.2553H216.202V23.383ZM212.458 25.2553H214.33V27.1277H212.458V25.2553ZM210.585 25.2553H212.458V27.1277H210.585V25.2553ZM216.202 27.1277H218.075V29H216.202V27.1277ZM218.075 27.1277H219.947V29H218.075V27.1277ZM219.947 27.1277H221.819V29H219.947V27.1277ZM221.819 27.1277H223.692V29H221.819V27.1277ZM223.692 27.1277H225.564V29H223.692V27.1277ZM225.564 23.383H227.436V25.2553H225.564V23.383ZM225.564 25.2553H227.436V27.1277H225.564V25.2553ZM225.564 27.1277H227.436V29H225.564V27.1277ZM223.692 0.914894H225.564V2.78724H223.692V0.914894ZM223.692 2.78724H225.564V4.65958H223.692V2.78724ZM223.692 4.65958H225.564V6.53192H223.692V4.65958ZM223.692 6.53192H225.564V8.40426H223.692V6.53192ZM221.819 8.40426H223.692V10.2766H221.819V8.40426ZM221.819 10.2766H223.692V12.1489H221.819V10.2766ZM225.564 0.914894H227.436V2.78724H225.564V0.914894ZM225.564 2.78724H227.436V4.65958H225.564V2.78724ZM225.564 4.65958H227.436V6.53192H225.564V4.65958ZM225.564 6.53192H227.436V8.40426H225.564V6.53192ZM223.692 8.40426H225.564V10.2766H223.692V8.40426ZM223.692 10.2766H225.564V12.1489H223.692V10.2766ZM221.819 12.1489H223.692V14.0213H221.819V12.1489ZM219.947 14.0213H221.819V15.8936H219.947V14.0213ZM218.075 15.8936H219.947V17.766H218.075V15.8936ZM225.564 8.40426H227.436V10.2766H225.564V8.40426ZM219.947 0.914894H221.819V2.78724H219.947V0.914894ZM219.947 2.78724H221.819V4.65958H219.947V2.78724ZM219.947 4.65958H221.819V6.53192H219.947V4.65958ZM214.33 23.383H216.202V25.2553H214.33V23.383ZM214.33 25.2553H216.202V27.1277H214.33V25.2553ZM214.33 27.1277H216.202V29H214.33V27.1277ZM231.176 23.383H233.048V25.2553H231.176V23.383ZM233.048 23.383H234.92V25.2553H233.048V23.383ZM234.92 23.383H236.793V25.2553H234.92V23.383ZM234.92 25.2553H236.793V27.1277H234.92V25.2553ZM234.92 27.1277H236.793V29H234.92V27.1277ZM233.048 27.1277H234.92V29H233.048V27.1277ZM231.176 27.1277H233.048V29H231.176V27.1277ZM231.176 25.2553H233.048V27.1277H231.176V25.2553ZM233.048 25.2553H234.92V27.1277H233.048V25.2553Z" fill="#3121E1"/>
</svg>
