<svg width="44" height="29" viewBox="0 0 44 29" fill="none" xmlns="http://www.w3.org/2000/svg">
<path d="M0.87234 0.914894H2.74468V2.78724H0.87234V0.914894ZM2.74468 0.914894H4.61702V2.78724H2.74468V0.914894ZM4.61702 0.914894H6.48936V2.78724H4.61702V0.914894ZM6.48936 0.914894H8.3617V2.78724H6.48936V0.914894ZM6.48936 2.78724H8.3617V4.65958H6.48936V2.78724ZM6.48936 4.65958H8.3617V6.53192H6.48936V4.65958ZM6.48936 6.53192H8.3617V8.40426H6.48936V6.53192ZM0.87234 2.78724H2.74468V4.65958H0.87234V2.78724ZM0.87234 4.65958H2.74468V6.53192H0.87234V4.65958ZM0.87234 6.53192H2.74468V8.40426H0.87234V6.53192ZM0.87234 10.2766H2.74468V12.1489H0.87234V10.2766ZM0.87234 12.1489H2.74468V14.0213H0.87234V12.1489ZM0.87234 14.0213H2.74468V15.8936H0.87234V14.0213ZM0.87234 15.8936H2.74468V17.766H0.87234V15.8936ZM0.87234 17.766H2.74468V19.6383H0.87234V17.766ZM2.74468 19.6383H4.61702V21.5106H2.74468V19.6383ZM2.74468 21.5106H4.61702V23.383H2.74468V21.5106ZM2.74468 23.383H4.61702V25.2553H2.74468V23.383ZM2.74468 25.2553H4.61702V27.1277H2.74468V25.2553ZM2.74468 27.1277H4.61702V29H2.74468V27.1277ZM0.87234 8.40426H2.74468V10.2766H0.87234V8.40426ZM0.87234 19.6383H2.74468V21.5106H0.87234V19.6383ZM0.87234 21.5106H2.74468V23.383H0.87234V21.5106ZM0.87234 23.383H2.74468V25.2553H0.87234V23.383ZM0.87234 25.2553H2.74468V27.1277H0.87234V25.2553ZM0.87234 27.1277H2.74468V29H0.87234V27.1277ZM4.61702 27.1277H6.48936V29H4.61702V27.1277ZM4.61702 25.2553H6.48936V27.1277H4.61702V25.2553ZM4.61702 23.383H6.48936V25.2553H4.61702V23.383ZM4.61702 21.5106H6.48936V23.383H4.61702V21.5106ZM4.61702 17.766H6.48936V19.6383H4.61702V17.766ZM4.61702 15.8936H6.48936V17.766H4.61702V15.8936ZM4.61702 12.1489H6.48936V14.0213H4.61702V12.1489ZM4.61702 10.2766H6.48936V12.1489H4.61702V10.2766ZM4.61702 8.40426H6.48936V10.2766H4.61702V8.40426ZM4.61702 14.0213H6.48936V15.8936H4.61702V14.0213ZM4.61702 19.6383H6.48936V21.5106H4.61702V19.6383ZM2.74468 17.766H4.61702V19.6383H2.74468V17.766ZM2.74468 15.8936H4.61702V17.766H2.74468V15.8936ZM2.74468 14.0213H4.61702V15.8936H2.74468V14.0213ZM2.74468 12.1489H4.61702V14.0213H2.74468V12.1489ZM2.74468 10.2766H4.61702V12.1489H2.74468V10.2766ZM2.74468 8.40426H4.61702V10.2766H2.74468V8.40426ZM2.74468 6.53192H4.61702V8.40426H2.74468V6.53192ZM2.74468 4.65958H4.61702V6.53192H2.74468V4.65958ZM2.74468 2.78724H4.61702V4.65958H2.74468V2.78724ZM4.61702 2.78724H6.48936V4.65958H4.61702V2.78724ZM4.61702 4.65958H6.48936V6.53192H4.61702V4.65958ZM4.61702 6.53192H6.48936V8.40426H4.61702V6.53192ZM6.48936 8.40426H8.3617V10.2766H6.48936V8.40426ZM6.48936 10.2766H8.3617V12.1489H6.48936V10.2766ZM8.3617 10.2766H10.234V12.1489H8.3617V10.2766ZM8.3617 12.1489H10.234V14.0213H8.3617V12.1489ZM6.48936 12.1489H8.3617V14.0213H6.48936V12.1489ZM8.3617 8.40426H10.234V10.2766H8.3617V8.40426ZM8.3617 6.53192H10.234V8.40426H8.3617V6.53192ZM8.3617 4.65958H10.234V6.53192H8.3617V4.65958ZM8.3617 14.0213H10.234V15.8936H8.3617V14.0213ZM10.234 14.0213H12.1064V15.8936H10.234V14.0213ZM10.234 12.1489H12.1064V14.0213H10.234V12.1489ZM10.234 10.2766H12.1064V12.1489H10.234V10.2766ZM10.234 8.40426H12.1064V10.2766H10.234V8.40426ZM8.3617 15.8936H10.234V17.766H8.3617V15.8936ZM10.234 15.8936H12.1064V17.766H10.234V15.8936ZM12.1064 15.8936H13.9787V17.766H12.1064V15.8936ZM12.1064 14.0213H13.9787V15.8936H12.1064V14.0213ZM12.1064 12.1489H13.9787V14.0213H12.1064V12.1489ZM10.234 19.6383H12.1064V21.5106H10.234V19.6383ZM10.234 17.766H12.1064V19.6383H10.234V17.766ZM12.1064 17.766H13.9787V19.6383H12.1064V17.766ZM12.1064 19.6383H13.9787V21.5106H12.1064V19.6383ZM13.9787 17.766H15.8511V19.6383H13.9787V17.766ZM13.9787 15.8936H15.8511V17.766H13.9787V15.8936ZM13.9787 19.6383H15.8511V21.5106H13.9787V19.6383ZM13.9787 21.5106H15.8511V23.383H13.9787V21.5106ZM12.1064 21.5106H13.9787V23.383H12.1064V21.5106ZM12.1064 23.383H13.9787V25.2553H12.1064V23.383ZM13.9787 23.383H15.8511V25.2553H13.9787V23.383ZM13.9787 25.2553H15.8511V27.1277H13.9787V25.2553ZM13.9787 27.1277H15.8511V29H13.9787V27.1277ZM15.8511 27.1277H17.7234V29H15.8511V27.1277ZM17.7234 27.1277H19.5957V29H17.7234V27.1277ZM19.5957 27.1277H21.4681V29H19.5957V27.1277ZM19.5957 25.2553H21.4681V27.1277H19.5957V25.2553ZM17.7234 23.383H19.5957V25.2553H17.7234V23.383ZM17.7234 21.5106H19.5957V23.383H17.7234V21.5106ZM17.7234 19.6383H19.5957V21.5106H17.7234V19.6383ZM17.7234 17.766H19.5957V19.6383H17.7234V17.766ZM17.7234 15.8936H19.5957V17.766H17.7234V15.8936ZM19.5957 19.6383H21.4681V21.5106H19.5957V19.6383ZM19.5957 21.5106H21.4681V23.383H19.5957V21.5106ZM19.5957 23.383H21.4681V25.2553H19.5957V23.383ZM17.7234 25.2553H19.5957V27.1277H17.7234V25.2553ZM15.8511 25.2553H17.7234V27.1277H15.8511V25.2553ZM15.8511 23.383H17.7234V25.2553H15.8511V23.383ZM15.8511 21.5106H17.7234V23.383H15.8511V21.5106ZM15.8511 19.6383H17.7234V21.5106H15.8511V19.6383ZM15.8511 17.766H17.7234V19.6383H15.8511V17.766ZM15.8511 15.8936H17.7234V17.766H15.8511V15.8936ZM15.8511 14.0213H17.7234V15.8936H15.8511V14.0213ZM17.7234 14.0213H19.5957V15.8936H17.7234V14.0213ZM19.5957 17.766H21.4681V19.6383H19.5957V17.766ZM19.5957 15.8936H21.4681V17.766H19.5957V15.8936ZM19.5957 14.0213H21.4681V15.8936H19.5957V14.0213ZM19.5957 12.1489H21.4681V14.0213H19.5957V12.1489ZM19.5957 10.2766H21.4681V12.1489H19.5957V10.2766ZM19.5957 8.40426H21.4681V10.2766H19.5957V8.40426ZM17.7234 8.40426H19.5957V10.2766H17.7234V8.40426ZM17.7234 6.53192H19.5957V8.40426H17.7234V6.53192ZM15.8511 8.40426H17.7234V10.2766H15.8511V8.40426ZM15.8511 10.2766H17.7234V12.1489H15.8511V10.2766ZM15.8511 12.1489H17.7234V14.0213H15.8511V12.1489ZM17.7234 12.1489H19.5957V14.0213H17.7234V12.1489ZM17.7234 10.2766H19.5957V12.1489H17.7234V10.2766ZM15.8511 0.914894H17.7234V2.78724H15.8511V0.914894ZM17.7234 0.914894H19.5957V2.78724H17.7234V0.914894ZM19.5957 0.914894H21.4681V2.78724H19.5957V0.914894ZM19.5957 2.78724H21.4681V4.65958H19.5957V2.78724ZM19.5957 4.65958H21.4681V6.53192H19.5957V4.65958ZM19.5957 6.53192H21.4681V8.40426H19.5957V6.53192ZM17.7234 4.65958H19.5957V6.53192H17.7234V4.65958ZM17.7234 2.78724H19.5957V4.65958H17.7234V2.78724ZM15.8511 6.53192H17.7234V8.40426H15.8511V6.53192ZM15.8511 4.65958H17.7234V6.53192H15.8511V4.65958ZM15.8511 2.78724H17.7234V4.65958H15.8511V2.78724ZM25.2109 0.914894H27.0833V2.78724H25.2109V0.914894ZM27.0833 0.914894H28.9556V2.78724H27.0833V0.914894ZM28.9556 0.914894H30.828V2.78724H28.9556V0.914894ZM30.828 0.914894H32.7003V2.78724H30.828V0.914894ZM32.7003 0.914894H34.5726V2.78724H32.7003V0.914894ZM34.5726 0.914894H36.445V2.78724H34.5726V0.914894ZM36.445 0.914894H38.3173V2.78724H36.445V0.914894ZM38.3173 0.914894H40.1897V2.78724H38.3173V0.914894ZM38.3173 2.78724H40.1897V4.65958H38.3173V2.78724ZM40.1897 2.78724H42.062V4.65958H40.1897V2.78724ZM36.445 2.78724H38.3173V4.65958H36.445V2.78724ZM34.5726 2.78724H36.445V4.65958H34.5726V2.78724ZM32.7003 2.78724H34.5726V4.65958H32.7003V2.78724ZM30.828 2.78724H32.7003V4.65958H30.828V2.78724ZM28.9556 2.78724H30.828V4.65958H28.9556V2.78724ZM27.0833 2.78724H28.9556V4.65958H27.0833V2.78724ZM25.2109 2.78724H27.0833V4.65958H25.2109V2.78724ZM25.2109 4.65958H27.0833V6.53192H25.2109V4.65958ZM27.0833 4.65958H28.9556V6.53192H27.0833V4.65958ZM28.9556 4.65958H30.828V6.53192H28.9556V4.65958ZM30.828 4.65958H32.7003V6.53192H30.828V4.65958ZM34.5726 4.65958H36.445V6.53192H34.5726V4.65958ZM36.445 4.65958H38.3173V6.53192H36.445V4.65958ZM38.3173 4.65958H40.1897V6.53192H38.3173V4.65958ZM40.1897 4.65958H42.062V6.53192H40.1897V4.65958ZM42.062 4.65958H43.9343V6.53192H42.062V4.65958ZM32.7003 4.65958H34.5726V6.53192H32.7003V4.65958ZM36.445 6.53192H38.3173V8.40426H36.445V6.53192ZM38.3173 6.53192H40.1897V8.40426H38.3173V6.53192ZM42.062 6.53192H43.9343V8.40426H42.062V6.53192ZM40.1897 6.53192H42.062V8.40426H40.1897V6.53192ZM40.1897 8.40426H42.062V10.2766H40.1897V8.40426ZM40.1897 12.1489H42.062V14.0213H40.1897V12.1489ZM42.062 12.1489H43.9343V14.0213H42.062V12.1489ZM42.062 14.0213H43.9343V15.8936H42.062V14.0213ZM42.062 8.40426H43.9343V10.2766H42.062V8.40426ZM38.3173 12.1489H40.1897V14.0213H38.3173V12.1489ZM38.3173 8.40426H40.1897V10.2766H38.3173V8.40426ZM36.445 12.1489H38.3173V14.0213H36.445V12.1489ZM38.3173 14.0213H40.1897V15.8936H38.3173V14.0213ZM40.1897 14.0213H42.062V15.8936H40.1897V14.0213ZM40.1897 15.8936H42.062V17.766H40.1897V15.8936ZM36.445 17.766H38.3173V19.6383H36.445V17.766ZM38.3173 17.766H40.1897V19.6383H38.3173V17.766ZM38.3173 15.8936H40.1897V17.766H38.3173V15.8936ZM36.445 15.8936H38.3173V17.766H36.445V15.8936ZM36.445 14.0213H38.3173V15.8936H36.445V14.0213ZM34.5726 17.766H36.445V19.6383H34.5726V17.766ZM32.7003 17.766H34.5726V19.6383H32.7003V17.766ZM30.828 17.766H32.7003V19.6383H30.828V17.766ZM30.828 15.8936H32.7003V17.766H30.828V15.8936ZM32.7003 15.8936H34.5726V17.766H32.7003V15.8936ZM32.7003 14.0213H34.5726V15.8936H32.7003V14.0213ZM34.5726 14.0213H36.445V15.8936H34.5726V14.0213ZM30.828 14.0213H32.7003V15.8936H30.828V14.0213ZM34.5726 15.8936H36.445V17.766H34.5726V15.8936ZM27.0833 6.53192H28.9556V8.40426H27.0833V6.53192ZM28.9556 6.53192H30.828V8.40426H28.9556V6.53192ZM28.9556 8.40426H30.828V10.2766H28.9556V8.40426ZM28.9556 10.2766H30.828V12.1489H28.9556V10.2766ZM28.9556 12.1489H30.828V14.0213H28.9556V12.1489ZM27.0833 12.1489H28.9556V14.0213H27.0833V12.1489ZM25.2109 12.1489H27.0833V14.0213H25.2109V12.1489ZM25.2109 10.2766H27.0833V12.1489H25.2109V10.2766ZM25.2109 8.40426H27.0833V10.2766H25.2109V8.40426ZM25.2109 6.53192H27.0833V8.40426H25.2109V6.53192ZM27.0833 10.2766H28.9556V12.1489H27.0833V10.2766ZM27.0833 14.0213H28.9556V15.8936H27.0833V14.0213ZM27.0833 8.40426H28.9556V10.2766H27.0833V8.40426ZM25.2109 14.0213H27.0833V15.8936H25.2109V14.0213ZM25.2109 15.8936H27.0833V17.766H25.2109V15.8936ZM27.0833 15.8936H28.9556V17.766H27.0833V15.8936ZM28.9556 14.0213H30.828V15.8936H28.9556V14.0213ZM28.9556 15.8936H30.828V17.766H28.9556V15.8936ZM28.9556 17.766H30.828V19.6383H28.9556V17.766ZM28.9556 19.6383H30.828V21.5106H28.9556V19.6383ZM28.9556 21.5106H30.828V23.383H28.9556V21.5106ZM28.9556 23.383H30.828V25.2553H28.9556V23.383ZM28.9556 27.1277H30.828V29H28.9556V27.1277ZM27.0833 27.1277H28.9556V29H27.0833V27.1277ZM25.2109 27.1277H27.0833V29H25.2109V27.1277ZM25.2109 25.2553H27.0833V27.1277H25.2109V25.2553ZM25.2109 23.383H27.0833V25.2553H25.2109V23.383ZM25.2109 21.5106H27.0833V23.383H25.2109V21.5106ZM25.2109 19.6383H27.0833V21.5106H25.2109V19.6383ZM25.2109 17.766H27.0833V19.6383H25.2109V17.766ZM27.0833 17.766H28.9556V19.6383H27.0833V17.766ZM27.0833 19.6383H28.9556V21.5106H27.0833V19.6383ZM27.0833 21.5106H28.9556V23.383H27.0833V21.5106ZM27.0833 23.383H28.9556V25.2553H27.0833V23.383ZM27.0833 25.2553H28.9556V27.1277H27.0833V25.2553ZM28.9556 25.2553H30.828V27.1277H28.9556V25.2553ZM42.062 10.2766H43.9343V12.1489H42.062V10.2766ZM40.1897 10.2766H42.062V12.1489H40.1897V10.2766ZM38.3173 10.2766H40.1897V12.1489H38.3173V10.2766Z" fill="#3121E1"/>
</svg>
